<svg width="855" height="82" viewBox="0 0 855 82" fill="none" xmlns="http://www.w3.org/2000/svg">
<g filter="url(#filter0_di_213_706)">
<g filter="url(#filter1_d_213_706)">
<path d="M807.954 22.461H842.027V29.6033H807.954V22.461ZM807.954 34.0928H842.027V41.2351H807.954V34.0928ZM812.894 31.9841C812.894 26.6783 813.916 22.0301 815.961 18.0395C818.043 14.0489 820.92 10.9425 824.593 8.72045C828.303 6.45304 832.638 5.31934 837.598 5.31934C840.248 5.31934 842.728 5.6141 845.037 6.20363C847.346 6.74781 849.334 7.42803 851 8.24429V18.1756C849.258 17.1325 847.309 16.3616 845.151 15.8628C843.031 15.364 840.967 15.1145 838.961 15.1145C835.705 15.1145 832.941 15.7721 830.669 17.0872C828.398 18.4023 826.656 20.3069 825.445 22.8011C824.271 25.2952 823.684 28.3562 823.684 31.9841C823.684 35.5666 824.271 38.6049 825.445 41.0991C826.656 43.5932 828.398 45.4978 830.669 46.8129C832.941 48.0827 835.705 48.7176 838.961 48.7176C840.929 48.7176 842.993 48.4681 845.151 47.9693C847.309 47.4705 849.258 46.7222 851 45.7246V55.6558C849.334 56.5175 847.346 57.1977 845.037 57.6965C842.765 58.2407 840.286 58.5128 837.598 58.5128C832.638 58.5128 828.303 57.4017 824.593 55.1797C820.883 52.9576 818.005 49.8513 815.961 45.8606C813.916 41.87 812.894 37.2445 812.894 31.9841Z" fill="#810996"/>
</g>
<g filter="url(#filter2_d_213_706)">
<path d="M783.22 57.5777C779.111 57.5777 775.506 56.8308 772.405 55.3371C769.342 53.8433 766.914 51.7611 765.121 49.0904C763.365 46.4198 762.45 43.3417 762.375 39.8563H772.742C772.966 42.3459 774.012 44.3376 775.88 45.8313C777.748 47.2798 780.269 48.0041 783.445 48.0041C786.396 48.0041 788.637 47.4609 790.169 46.3745C791.738 45.2881 792.522 43.817 792.522 41.9611C792.522 40.92 792.28 40.0373 791.794 39.3131C791.346 38.5888 790.561 37.9778 789.441 37.4798C788.32 36.9819 786.788 36.6198 784.846 36.3935L778.794 35.7824C773.302 35.1939 769.267 33.587 766.69 30.9616C764.149 28.3362 762.879 24.8281 762.879 20.4374C762.879 17.133 763.664 14.3039 765.233 11.9501C766.802 9.55102 769.025 7.71777 771.901 6.45033C774.778 5.13763 778.159 4.48128 782.044 4.48128C785.892 4.48128 789.254 5.1829 792.13 6.58613C795.044 7.98936 797.342 9.93577 799.023 12.4254C800.741 14.915 801.675 17.812 801.824 21.1164H791.514C791.327 19.0794 790.449 17.4046 788.88 16.0919C787.311 14.7339 784.976 14.0549 781.876 14.0549C779.074 14.0549 776.926 14.5755 775.431 15.6166C773.937 16.6577 773.19 18.0836 773.19 19.8942C773.19 20.7995 773.395 21.6143 773.806 22.3385C774.255 23.0175 774.983 23.5833 775.992 24.036C777.038 24.4886 778.457 24.8055 780.251 24.9866L786.863 25.6655C790.748 26.0729 793.867 26.9103 796.221 28.1778C798.574 29.3999 800.274 31.0521 801.32 33.1343C802.366 35.1713 802.889 37.6383 802.889 40.5353C802.889 43.8849 802.086 46.8498 800.48 49.4299C798.873 51.9648 796.594 53.9565 793.643 55.405C790.729 56.8535 787.255 57.5777 783.22 57.5777ZM786.415 0V62.059H778.738V0H786.415Z" fill="#810996"/>
</g>
<g filter="url(#filter3_d_213_706)">
<path d="M725.659 56.7393V19.5039H729.745V51.9326H757.311V56.7393H725.659Z" fill="#810996"/>
</g>
<g filter="url(#filter4_d_213_706)">
<path d="M704.136 56.7395C693.37 56.7395 687.677 48.7952 687.677 33.8412V12.4116H691.735V34.0415C691.735 46.2583 695.793 52.1999 704.136 52.1999C712.478 52.1999 716.536 46.1916 716.536 34.0415V12.4116H720.595V33.8412C720.595 48.7952 714.958 56.7395 704.136 56.7395Z" fill="#810996"/>
</g>
<g filter="url(#filter5_d_213_706)">
<path d="M638.3 19.0314H663.511V26.9159H638.3V19.0314ZM666.176 5.31934C669.582 5.31934 672.506 6.05065 674.95 7.51327C677.43 8.9759 679.318 11.0327 680.614 13.6837C681.946 16.3347 682.613 19.4428 682.613 23.0079C682.613 26.5274 681.946 29.6126 680.614 32.2636C679.318 34.9146 677.43 36.9714 674.95 38.434C672.506 39.8966 669.582 40.628 666.176 40.628H647.962V30.1382H665.565C667.564 30.1382 669.138 29.5212 670.285 28.2871C671.433 27.0073 672.007 25.2476 672.007 23.0079C672.007 20.7683 671.433 19.0086 670.285 17.7288C669.138 16.449 667.564 15.8091 665.565 15.8091H648.906L653.571 9.77576V56.7397H643.131V5.31934H666.176Z" fill="#810996"/>
</g>
<g filter="url(#filter6_d_213_706)">
<path d="M620.499 10.6387L600.1 63.8321H594.449L614.849 10.6387H620.499ZM621.347 18.179C624.85 18.179 627.487 19.2757 629.258 21.4693C631.066 23.6171 631.97 27.0902 631.97 31.8886V56.2918H623.551V34.4249C623.551 31.7287 623.174 29.7179 622.421 28.3927C621.667 27.0217 620.499 26.3362 618.917 26.3362C616.694 26.3362 615.112 27.2959 614.17 29.2153C613.229 31.1346 612.758 33.8994 612.758 37.5096V56.2918H604.338V34.4249C604.338 32.6427 604.169 31.1574 603.83 29.9693C603.491 28.7811 602.982 27.89 602.304 27.2959C601.626 26.6561 600.759 26.3362 599.705 26.3362C598.16 26.3362 596.936 26.8161 596.032 27.7757C595.128 28.7354 594.487 30.1292 594.11 31.9572C593.734 33.7851 593.545 36.0244 593.545 38.6749V56.2918H585.126V18.8645H591.568L592.698 23.6628H593.15C593.79 22.3833 594.581 21.3551 595.523 20.5782C596.465 19.7556 597.501 19.1615 598.631 18.7959C599.799 18.3846 600.967 18.179 602.134 18.179C604.395 18.179 606.316 18.636 607.898 19.5499C609.48 20.4182 610.686 21.7892 611.515 23.6628H612.249C613.191 21.7435 614.491 20.3497 616.148 19.4814C617.843 18.6131 619.576 18.179 621.347 18.179Z" fill="#810996"/>
</g>
<g filter="url(#filter7_d_213_706)">
<path d="M577.529 5.31934V56.7397H566.742V9.7072L571.992 15.3977L553.474 19.2371V9.22728L569.511 5.31934H577.529Z" fill="#810996"/>
</g>
<g filter="url(#filter8_d_213_706)">
<path d="M456.88 30.0692H473.821L477.619 32.4003L480.995 30.0692H498.6V37.6109H456.88V30.0692ZM456.88 41.3817H498.6V48.9234H456.88V41.3817ZM472.012 58.0419V33.1545H483.347V58.0419H472.012ZM452.961 6.62158H465.501L480.332 31.0291H475.027L489.798 6.62158H502.338L481.297 40.0791L474.002 40.2162L452.961 6.62158Z" fill="#810996"/>
</g>
<g filter="url(#filter9_d_213_706)">
<path d="M446.63 20.8066V57.7578H439.818L438.552 52.8175H438.129C437.607 54.0356 436.984 55.0733 436.261 55.9306C435.537 56.7427 434.733 57.3518 433.849 57.7578C432.965 58.209 431.94 58.4346 430.774 58.4346C429.568 58.4346 428.483 58.1864 427.519 57.6901C426.554 57.1487 425.75 56.4043 425.107 55.4568H424.926C425.007 55.908 425.067 56.6299 425.107 57.6225C425.147 58.5699 425.167 59.5625 425.167 60.6002C425.208 61.683 425.228 62.6305 425.228 63.4426V74.0001H416.245V20.8066H425.228V42.3953C425.228 45.0121 425.65 46.9973 426.494 48.3508C427.378 49.7043 428.745 50.3811 430.593 50.3811C432.402 50.3811 433.809 49.9074 434.814 48.9599C435.859 48.0124 436.582 46.6364 436.984 44.8317C437.426 43.027 437.647 40.8162 437.647 38.1994V20.8066H446.63Z" fill="#810996"/>
</g>
<g filter="url(#filter10_d_213_706)">
<path d="M358.005 38.7764H387.907V46.3866H358.005V38.7764ZM393.648 32.8117L394.605 30.2749C398.113 30.3663 400.984 30.9834 403.216 32.1261C405.489 33.2687 407.163 34.8456 408.24 36.8567C409.356 38.8221 409.914 41.1075 409.914 43.7128C409.914 46.4552 409.356 48.9234 408.24 51.1173C407.123 53.2655 405.449 54.9567 403.216 56.1908C401.023 57.4249 398.273 58.0419 394.963 58.0419H362.67L366.139 31.6461L362.67 6.62158H393.827C397.974 6.62158 401.183 7.7414 403.455 9.98104C405.768 12.175 406.924 15.2145 406.924 19.0996C406.924 21.2478 406.485 23.3046 405.608 25.27C404.731 27.2354 403.336 28.9037 401.422 30.2749C399.508 31.6004 396.917 32.446 393.648 32.8117ZM373.853 54.8881L369.488 48.9234H392.213C394.166 48.9234 395.681 48.3749 396.758 47.2779C397.874 46.1809 398.432 44.6269 398.432 42.6158C398.432 40.6047 397.814 39.005 396.578 37.8166C395.382 36.6282 393.588 36.034 391.196 36.034H372.597V27.2583H389.761C391.395 27.2583 392.751 26.7098 393.827 25.6128C394.904 24.5159 395.442 23.0075 395.442 21.0878C395.442 19.5338 394.983 18.254 394.066 17.2484C393.149 16.2429 391.814 15.7401 390.06 15.7401H369.547L373.853 9.77536L376.963 31.6461L373.853 54.8881Z" fill="#810996"/>
</g>
<g filter="url(#filter11_d_213_706)">
<path d="M285.746 7.09229C290.149 7.09229 293.806 7.7735 296.717 9.13594C299.665 10.4984 301.904 12.2695 303.434 14.4494C304.964 16.6293 305.785 18.9455 305.897 21.3979H295.486C295.374 20.2625 294.945 19.218 294.198 18.2643C293.489 17.3106 292.426 16.5385 291.008 15.9481C289.589 15.3577 287.798 15.0625 285.634 15.0625C282.872 15.0625 280.876 15.5167 279.644 16.425C278.413 17.2879 277.797 18.3097 277.797 19.4905C277.797 20.5804 278.189 21.4433 278.972 22.0791C279.756 22.7149 281.062 23.3734 282.891 24.0546L295.654 28.0738C298.639 28.9821 301.009 30.0039 302.763 31.1393C304.554 32.2293 305.841 33.5009 306.625 34.9541C307.446 36.4074 307.857 38.1559 307.857 40.1995C307.857 42.9244 306.868 45.1497 304.89 46.8754C302.949 48.6012 299.871 49.623 295.654 49.9409L295.206 47.0117C296.437 46.5121 297.333 45.8763 297.893 45.1043C298.49 44.2868 298.788 43.3785 298.788 42.3794C298.788 40.8807 298.285 39.7227 297.277 38.9052C296.307 38.0877 294.758 37.3157 292.631 36.589L279.364 32.2293C276.64 31.321 274.364 30.3673 272.535 29.3681C270.707 28.369 269.326 27.1428 268.393 25.6896C267.497 24.1909 267.049 22.238 267.049 19.8311C267.049 17.5149 267.721 15.4032 269.065 13.4957C270.445 11.5429 272.516 9.99882 275.278 8.86345C278.04 7.68267 281.529 7.09229 285.746 7.09229ZM286.921 69.1513C282.518 69.1513 278.842 68.4701 275.894 67.1076C272.983 65.7452 270.763 63.974 269.232 61.7941C267.74 59.6142 266.9 57.2981 266.714 54.8457H277.181C277.293 55.9811 277.704 57.0256 278.413 57.9793C279.122 58.933 280.185 59.7051 281.603 60.2955C283.059 60.8858 284.869 61.181 287.033 61.181C289.795 61.181 291.791 60.7269 293.023 59.8186C294.254 58.9557 294.87 57.9339 294.87 56.7531C294.87 55.6178 294.478 54.7322 293.694 54.0964C292.911 53.4606 291.586 52.8248 289.72 52.189L277.013 48.1698C272.871 46.8527 269.792 45.2632 267.777 43.4012C265.799 41.4938 264.81 39.0414 264.81 36.0441C264.81 33.3646 265.781 31.162 267.721 29.4363C269.662 27.6651 272.74 26.5978 276.957 26.2345L277.405 29.2319C276.211 29.686 275.315 30.3218 274.718 31.1393C274.158 31.9568 273.879 32.8651 273.879 33.8642C273.879 35.3174 274.364 36.4755 275.334 37.3384C276.342 38.1558 277.89 38.9279 279.98 39.6545L293.247 44.0143C296.045 44.9226 298.341 45.8763 300.132 46.8754C301.96 47.8746 303.322 49.1235 304.218 50.6221C305.114 52.0754 305.562 54.0055 305.562 56.4125C305.562 58.7286 304.89 60.8404 303.546 62.7478C302.203 64.7007 300.15 66.2448 297.389 67.3801C294.665 68.5609 291.175 69.1513 286.921 69.1513Z" fill="#810996"/>
</g>
<g filter="url(#filter12_d_213_706)">
<path d="M233.439 21.4214H244.273V58.5126H233.439V21.4214ZM216.7 19.776H261.012V28.8259H216.7V19.776ZM216.7 7.09229H261.012V15.7995H216.7V7.09229Z" fill="#810996"/>
</g>
<g filter="url(#filter13_d_213_706)">
<path d="M211.635 7.09229V58.5126H200.848V11.4802L206.097 17.1707L187.58 21.0101V11.0002L203.617 7.09229H211.635Z" fill="#810996"/>
</g>
<g filter="url(#filter14_d_213_706)">
<path d="M154.624 32.9319V23.0266H184.282V32.9319H154.624ZM176.895 5.31934C178.463 5.31934 179.868 5.47764 181.108 5.79424C182.385 6.06562 183.698 6.45007 185.048 6.94759V16.3101C183.953 15.8126 182.823 15.4281 181.655 15.1567C180.524 14.8854 179.339 14.7497 178.099 14.7497C175.582 14.7497 173.794 15.3376 172.736 16.5136C171.715 17.6896 171.204 19.544 171.204 22.0768V53.4208C171.204 57.0844 170.62 60.2052 169.453 62.7833C168.322 65.4066 166.608 67.4193 164.31 68.8214C162.048 70.2235 159.202 70.9246 155.773 70.9246C154.314 70.9246 153.019 70.7663 151.888 70.4497C150.758 70.1783 149.572 69.7938 148.332 69.2963V59.9338C149.317 60.4314 150.32 60.8158 151.341 61.0872C152.363 61.3586 153.439 61.4942 154.57 61.4942C156.941 61.4942 158.601 60.9063 159.549 59.7303C160.534 58.5543 161.026 56.6999 161.026 54.1671V22.8231C161.026 19.1595 161.61 16.0387 162.777 13.4606C163.981 10.8373 165.75 8.82461 168.085 7.4225C170.456 6.02039 173.393 5.31934 176.895 5.31934Z" fill="#810996"/>
</g>
<g filter="url(#filter15_d_213_706)">
<path d="M127.441 60.2857C124.383 60.2857 121.511 59.5917 118.825 58.2037C116.177 56.8604 113.827 54.9798 111.775 52.5619C109.761 50.0993 108.176 47.256 107.02 44.0322C105.863 40.8083 105.285 37.3606 105.285 33.689C105.285 30.0174 105.863 26.5697 107.02 23.3458C108.176 20.122 109.761 17.3011 111.775 14.8832C113.827 12.4206 116.177 10.5176 118.825 9.17435C121.511 7.78631 124.383 7.09229 127.441 7.09229C130.5 7.09229 133.372 7.78631 136.058 9.17435C138.743 10.5176 141.093 12.4206 143.107 14.8832C145.159 17.3011 146.744 20.122 147.863 23.3458C149.019 26.5697 149.598 30.0174 149.598 33.689C149.598 37.3606 149.019 40.8083 147.863 44.0322C146.744 47.256 145.159 50.0993 143.107 52.5619C141.093 54.9798 138.743 56.8604 136.058 58.2037C133.372 59.5917 130.5 60.2857 127.441 60.2857ZM127.441 55.6514C129.978 55.6514 132.346 55.0918 134.547 53.9724C136.748 52.8082 138.687 51.2187 140.366 49.2038C142.044 47.1889 143.35 44.8605 144.282 42.2188C145.252 39.577 145.737 36.7337 145.737 33.689C145.737 30.6443 145.252 27.801 144.282 25.1592C143.35 22.5175 142.044 20.1892 140.366 18.1743C138.687 16.1594 136.748 14.5922 134.547 13.4728C132.346 12.3086 129.978 11.7266 127.441 11.7266C124.905 11.7266 122.536 12.3086 120.336 13.4728C118.135 14.5922 116.195 16.1594 114.517 18.1743C112.838 20.1892 111.514 22.5175 110.544 25.1592C109.612 27.801 109.146 30.6443 109.146 33.689C109.146 36.7337 109.612 39.577 110.544 42.2188C111.514 44.8605 112.838 47.1889 114.517 49.2038C116.195 51.2187 118.135 52.8082 120.336 53.9724C122.536 55.0918 124.905 55.6514 127.441 55.6514ZM127.441 52.4276C125.278 52.4276 123.245 51.9575 121.343 51.0172C119.478 50.0321 117.818 48.6888 116.363 46.9874C114.946 45.2411 113.827 43.2486 113.006 41.0098C112.223 38.7263 111.831 36.286 111.831 33.689C111.831 31.092 112.223 28.6741 113.006 26.4354C113.827 24.1518 114.946 22.1593 116.363 20.4578C117.818 18.7116 119.478 17.3683 121.343 16.428C123.245 15.4429 125.278 14.9504 127.441 14.9504C129.605 14.9504 131.638 15.4429 133.54 16.428C135.442 17.3683 137.102 18.7116 138.519 20.4578C139.974 22.1593 141.093 24.1518 141.876 26.4354C142.697 28.6741 143.107 31.092 143.107 33.689C143.107 36.286 142.697 38.7263 141.876 41.0098C141.093 43.2486 139.974 45.2411 138.519 46.9874C137.102 48.6888 135.442 50.0321 133.54 51.0172C131.638 51.9575 129.605 52.4276 127.441 52.4276ZM127.441 47.7933C129.642 47.7933 131.619 47.1665 133.372 45.9128C135.162 44.659 136.58 42.9576 137.624 40.8083C138.706 38.6591 139.247 36.286 139.247 33.689C139.247 31.0472 138.706 28.6741 137.624 26.5697C136.58 24.4205 135.162 22.719 133.372 21.4653C131.619 20.2115 129.642 19.5847 127.441 19.5847C125.278 19.5847 123.301 20.2115 121.511 21.4653C119.72 22.719 118.303 24.4205 117.258 26.5697C116.214 28.6741 115.692 31.0472 115.692 33.689C115.692 36.286 116.214 38.6591 117.258 40.8083C118.303 42.9576 119.72 44.659 121.511 45.9128C123.301 47.1665 125.278 47.7933 127.441 47.7933Z" fill="#810996"/>
</g>
<g filter="url(#filter16_d_213_706)">
<path d="M90.4376 30.2657V39.4528H72.6991L72.6434 39.2471C69.5196 39.2471 66.7863 38.5844 64.4435 37.2589C62.1007 35.9334 60.2599 34.0822 58.9211 31.7055C57.6196 29.3287 56.9688 26.5406 56.9688 23.3411C56.9688 20.0959 57.6196 17.2621 58.9211 14.8396C60.2599 12.4171 62.1007 10.5203 64.4435 9.1491C66.7863 7.77789 69.5196 7.09229 72.6434 7.09229H97.6892V58.5126H87.1465V10.5889L91.8879 16.4165H74.0937C72.0484 16.4165 70.4493 17.0335 69.2965 18.2676C68.1437 19.456 67.5672 21.1472 67.5672 23.3411C67.5672 25.4893 68.1437 27.1805 69.2965 28.4146C70.4493 29.6487 72.0484 30.2657 74.0937 30.2657H90.4376ZM82.9071 34.4479L68.1251 58.5126H55.9089L71.0815 34.4479H82.9071Z" fill="#810996"/>
</g>
<g filter="url(#filter17_d_213_706)">
<path d="M30.5669 7.09229C33.9901 7.09229 36.9295 7.84645 39.3853 9.35478C41.8783 10.8631 43.7759 13.0113 45.0782 15.7995C46.4177 18.5419 47.0874 21.7642 47.0874 25.4665C47.0874 29.1687 46.4177 32.3911 45.0782 35.1335C43.7759 37.8759 41.8783 40.0241 39.3853 41.5782C36.9295 43.0865 33.9901 43.8407 30.5669 43.8407H15.7207V34.0365H29.2274C31.4971 34.0365 33.2645 33.2824 34.5296 31.774C35.8319 30.2657 36.483 28.1632 36.483 25.4665C36.483 22.7698 35.8319 20.6673 34.5296 19.1589C33.2645 17.6506 31.4971 16.8964 29.2274 16.8964H14.6044L19.3485 11.0688V58.5126H8.7999V7.09229H30.5669ZM4 28.6888V22.2441H52.1106V28.6888H4Z" fill="#810996"/>
</g>
</g>
<defs>
<filter id="filter0_di_213_706" x="0.6" y="0" width="853.8" height="81.4" filterUnits="userSpaceOnUse" color-interpolation-filters="sRGB">
<feFlood flood-opacity="0" result="BackgroundImageFix"/>
<feColorMatrix in="SourceAlpha" type="matrix" values="0 0 0 0 0 0 0 0 0 0 0 0 0 0 0 0 0 0 127 0" result="hardAlpha"/>
<feOffset dy="4"/>
<feGaussianBlur stdDeviation="1.7"/>
<feComposite in2="hardAlpha" operator="out"/>
<feColorMatrix type="matrix" values="0 0 0 0 0.545098 0 0 0 0 0.388235 0 0 0 0 0.101961 0 0 0 0.45 0"/>
<feBlend mode="normal" in2="BackgroundImageFix" result="effect1_dropShadow_213_706"/>
<feBlend mode="normal" in="SourceGraphic" in2="effect1_dropShadow_213_706" result="shape"/>
<feColorMatrix in="SourceAlpha" type="matrix" values="0 0 0 0 0 0 0 0 0 0 0 0 0 0 0 0 0 0 127 0" result="hardAlpha"/>
<feOffset dy="4"/>
<feGaussianBlur stdDeviation="2"/>
<feComposite in2="hardAlpha" operator="arithmetic" k2="-1" k3="1"/>
<feColorMatrix type="matrix" values="0 0 0 0 0.545098 0 0 0 0 0.388235 0 0 0 0 0.101961 0 0 0 0.25 0"/>
<feBlend mode="normal" in2="shape" result="effect2_innerShadow_213_706"/>
</filter>
<filter id="filter1_d_213_706" x="807.954" y="5.31934" width="43.0464" height="54.1934" filterUnits="userSpaceOnUse" color-interpolation-filters="sRGB">
<feFlood flood-opacity="0" result="BackgroundImageFix"/>
<feColorMatrix in="SourceAlpha" type="matrix" values="0 0 0 0 0 0 0 0 0 0 0 0 0 0 0 0 0 0 127 0" result="hardAlpha"/>
<feOffset dy="1"/>
<feComposite in2="hardAlpha" operator="out"/>
<feColorMatrix type="matrix" values="0 0 0 0 1 0 0 0 0 0.647059 0 0 0 0 0 0 0 0 0.45 0"/>
<feBlend mode="normal" in2="BackgroundImageFix" result="effect1_dropShadow_213_706"/>
<feBlend mode="normal" in="SourceGraphic" in2="effect1_dropShadow_213_706" result="shape"/>
</filter>
<filter id="filter2_d_213_706" x="762.375" y="0" width="40.5142" height="63.0591" filterUnits="userSpaceOnUse" color-interpolation-filters="sRGB">
<feFlood flood-opacity="0" result="BackgroundImageFix"/>
<feColorMatrix in="SourceAlpha" type="matrix" values="0 0 0 0 0 0 0 0 0 0 0 0 0 0 0 0 0 0 127 0" result="hardAlpha"/>
<feOffset dy="1"/>
<feComposite in2="hardAlpha" operator="out"/>
<feColorMatrix type="matrix" values="0 0 0 0 1 0 0 0 0 0.647059 0 0 0 0 0 0 0 0 0.45 0"/>
<feBlend mode="normal" in2="BackgroundImageFix" result="effect1_dropShadow_213_706"/>
<feBlend mode="normal" in="SourceGraphic" in2="effect1_dropShadow_213_706" result="shape"/>
</filter>
<filter id="filter3_d_213_706" x="725.659" y="19.5039" width="31.6516" height="38.2354" filterUnits="userSpaceOnUse" color-interpolation-filters="sRGB">
<feFlood flood-opacity="0" result="BackgroundImageFix"/>
<feColorMatrix in="SourceAlpha" type="matrix" values="0 0 0 0 0 0 0 0 0 0 0 0 0 0 0 0 0 0 127 0" result="hardAlpha"/>
<feOffset dy="1"/>
<feComposite in2="hardAlpha" operator="out"/>
<feColorMatrix type="matrix" values="0 0 0 0 1 0 0 0 0 0.647059 0 0 0 0 0 0 0 0 0.45 0"/>
<feBlend mode="normal" in2="BackgroundImageFix" result="effect1_dropShadow_213_706"/>
<feBlend mode="normal" in="SourceGraphic" in2="effect1_dropShadow_213_706" result="shape"/>
</filter>
<filter id="filter4_d_213_706" x="687.677" y="12.4116" width="32.9177" height="45.3276" filterUnits="userSpaceOnUse" color-interpolation-filters="sRGB">
<feFlood flood-opacity="0" result="BackgroundImageFix"/>
<feColorMatrix in="SourceAlpha" type="matrix" values="0 0 0 0 0 0 0 0 0 0 0 0 0 0 0 0 0 0 127 0" result="hardAlpha"/>
<feOffset dy="1"/>
<feComposite in2="hardAlpha" operator="out"/>
<feColorMatrix type="matrix" values="0 0 0 0 1 0 0 0 0 0.647059 0 0 0 0 0 0 0 0 0.45 0"/>
<feBlend mode="normal" in2="BackgroundImageFix" result="effect1_dropShadow_213_706"/>
<feBlend mode="normal" in="SourceGraphic" in2="effect1_dropShadow_213_706" result="shape"/>
</filter>
<filter id="filter5_d_213_706" x="638.3" y="5.31934" width="44.3125" height="52.4204" filterUnits="userSpaceOnUse" color-interpolation-filters="sRGB">
<feFlood flood-opacity="0" result="BackgroundImageFix"/>
<feColorMatrix in="SourceAlpha" type="matrix" values="0 0 0 0 0 0 0 0 0 0 0 0 0 0 0 0 0 0 127 0" result="hardAlpha"/>
<feOffset dy="1"/>
<feComposite in2="hardAlpha" operator="out"/>
<feColorMatrix type="matrix" values="0 0 0 0 1 0 0 0 0 0.647059 0 0 0 0 0 0 0 0 0.45 0"/>
<feBlend mode="normal" in2="BackgroundImageFix" result="effect1_dropShadow_213_706"/>
<feBlend mode="normal" in="SourceGraphic" in2="effect1_dropShadow_213_706" result="shape"/>
</filter>
<filter id="filter6_d_213_706" x="585.126" y="10.6387" width="46.8445" height="54.1934" filterUnits="userSpaceOnUse" color-interpolation-filters="sRGB">
<feFlood flood-opacity="0" result="BackgroundImageFix"/>
<feColorMatrix in="SourceAlpha" type="matrix" values="0 0 0 0 0 0 0 0 0 0 0 0 0 0 0 0 0 0 127 0" result="hardAlpha"/>
<feOffset dy="1"/>
<feComposite in2="hardAlpha" operator="out"/>
<feColorMatrix type="matrix" values="0 0 0 0 1 0 0 0 0 0.647059 0 0 0 0 0 0 0 0 0.45 0"/>
<feBlend mode="normal" in2="BackgroundImageFix" result="effect1_dropShadow_213_706"/>
<feBlend mode="normal" in="SourceGraphic" in2="effect1_dropShadow_213_706" result="shape"/>
</filter>
<filter id="filter7_d_213_706" x="553.474" y="5.31934" width="24.0554" height="52.4204" filterUnits="userSpaceOnUse" color-interpolation-filters="sRGB">
<feFlood flood-opacity="0" result="BackgroundImageFix"/>
<feColorMatrix in="SourceAlpha" type="matrix" values="0 0 0 0 0 0 0 0 0 0 0 0 0 0 0 0 0 0 127 0" result="hardAlpha"/>
<feOffset dy="1"/>
<feComposite in2="hardAlpha" operator="out"/>
<feColorMatrix type="matrix" values="0 0 0 0 1 0 0 0 0 0.647059 0 0 0 0 0 0 0 0 0.45 0"/>
<feBlend mode="normal" in2="BackgroundImageFix" result="effect1_dropShadow_213_706"/>
<feBlend mode="normal" in="SourceGraphic" in2="effect1_dropShadow_213_706" result="shape"/>
</filter>
<filter id="filter8_d_213_706" x="452.961" y="6.62158" width="49.3767" height="52.4204" filterUnits="userSpaceOnUse" color-interpolation-filters="sRGB">
<feFlood flood-opacity="0" result="BackgroundImageFix"/>
<feColorMatrix in="SourceAlpha" type="matrix" values="0 0 0 0 0 0 0 0 0 0 0 0 0 0 0 0 0 0 127 0" result="hardAlpha"/>
<feOffset dy="1"/>
<feComposite in2="hardAlpha" operator="out"/>
<feColorMatrix type="matrix" values="0 0 0 0 1 0 0 0 0 0.647059 0 0 0 0 0 0 0 0 0.45 0"/>
<feBlend mode="normal" in2="BackgroundImageFix" result="effect1_dropShadow_213_706"/>
<feBlend mode="normal" in="SourceGraphic" in2="effect1_dropShadow_213_706" result="shape"/>
</filter>
<filter id="filter9_d_213_706" x="416.245" y="20.8066" width="30.3857" height="54.1934" filterUnits="userSpaceOnUse" color-interpolation-filters="sRGB">
<feFlood flood-opacity="0" result="BackgroundImageFix"/>
<feColorMatrix in="SourceAlpha" type="matrix" values="0 0 0 0 0 0 0 0 0 0 0 0 0 0 0 0 0 0 127 0" result="hardAlpha"/>
<feOffset dy="1"/>
<feComposite in2="hardAlpha" operator="out"/>
<feColorMatrix type="matrix" values="0 0 0 0 1 0 0 0 0 0.647059 0 0 0 0 0 0 0 0 0.45 0"/>
<feBlend mode="normal" in2="BackgroundImageFix" result="effect1_dropShadow_213_706"/>
<feBlend mode="normal" in="SourceGraphic" in2="effect1_dropShadow_213_706" result="shape"/>
</filter>
<filter id="filter10_d_213_706" x="358.005" y="6.62158" width="51.9087" height="52.4204" filterUnits="userSpaceOnUse" color-interpolation-filters="sRGB">
<feFlood flood-opacity="0" result="BackgroundImageFix"/>
<feColorMatrix in="SourceAlpha" type="matrix" values="0 0 0 0 0 0 0 0 0 0 0 0 0 0 0 0 0 0 127 0" result="hardAlpha"/>
<feOffset dy="1"/>
<feComposite in2="hardAlpha" operator="out"/>
<feColorMatrix type="matrix" values="0 0 0 0 1 0 0 0 0 0.647059 0 0 0 0 0 0 0 0 0.45 0"/>
<feBlend mode="normal" in2="BackgroundImageFix" result="effect1_dropShadow_213_706"/>
<feBlend mode="normal" in="SourceGraphic" in2="effect1_dropShadow_213_706" result="shape"/>
</filter>
<filter id="filter11_d_213_706" x="264.81" y="7.09229" width="43.0464" height="63.0591" filterUnits="userSpaceOnUse" color-interpolation-filters="sRGB">
<feFlood flood-opacity="0" result="BackgroundImageFix"/>
<feColorMatrix in="SourceAlpha" type="matrix" values="0 0 0 0 0 0 0 0 0 0 0 0 0 0 0 0 0 0 127 0" result="hardAlpha"/>
<feOffset dy="1"/>
<feComposite in2="hardAlpha" operator="out"/>
<feColorMatrix type="matrix" values="0 0 0 0 1 0 0 0 0 0.647059 0 0 0 0 0 0 0 0 0.45 0"/>
<feBlend mode="normal" in2="BackgroundImageFix" result="effect1_dropShadow_213_706"/>
<feBlend mode="normal" in="SourceGraphic" in2="effect1_dropShadow_213_706" result="shape"/>
</filter>
<filter id="filter12_d_213_706" x="216.7" y="7.09229" width="44.3125" height="52.4204" filterUnits="userSpaceOnUse" color-interpolation-filters="sRGB">
<feFlood flood-opacity="0" result="BackgroundImageFix"/>
<feColorMatrix in="SourceAlpha" type="matrix" values="0 0 0 0 0 0 0 0 0 0 0 0 0 0 0 0 0 0 127 0" result="hardAlpha"/>
<feOffset dy="1"/>
<feComposite in2="hardAlpha" operator="out"/>
<feColorMatrix type="matrix" values="0 0 0 0 1 0 0 0 0 0.647059 0 0 0 0 0 0 0 0 0.45 0"/>
<feBlend mode="normal" in2="BackgroundImageFix" result="effect1_dropShadow_213_706"/>
<feBlend mode="normal" in="SourceGraphic" in2="effect1_dropShadow_213_706" result="shape"/>
</filter>
<filter id="filter13_d_213_706" x="187.58" y="7.09229" width="24.0554" height="52.4204" filterUnits="userSpaceOnUse" color-interpolation-filters="sRGB">
<feFlood flood-opacity="0" result="BackgroundImageFix"/>
<feColorMatrix in="SourceAlpha" type="matrix" values="0 0 0 0 0 0 0 0 0 0 0 0 0 0 0 0 0 0 127 0" result="hardAlpha"/>
<feOffset dy="1"/>
<feComposite in2="hardAlpha" operator="out"/>
<feColorMatrix type="matrix" values="0 0 0 0 1 0 0 0 0 0.647059 0 0 0 0 0 0 0 0 0.45 0"/>
<feBlend mode="normal" in2="BackgroundImageFix" result="effect1_dropShadow_213_706"/>
<feBlend mode="normal" in="SourceGraphic" in2="effect1_dropShadow_213_706" result="shape"/>
</filter>
<filter id="filter14_d_213_706" x="148.332" y="5.31934" width="36.7161" height="66.6055" filterUnits="userSpaceOnUse" color-interpolation-filters="sRGB">
<feFlood flood-opacity="0" result="BackgroundImageFix"/>
<feColorMatrix in="SourceAlpha" type="matrix" values="0 0 0 0 0 0 0 0 0 0 0 0 0 0 0 0 0 0 127 0" result="hardAlpha"/>
<feOffset dy="1"/>
<feComposite in2="hardAlpha" operator="out"/>
<feColorMatrix type="matrix" values="0 0 0 0 1 0 0 0 0 0.647059 0 0 0 0 0 0 0 0 0.45 0"/>
<feBlend mode="normal" in2="BackgroundImageFix" result="effect1_dropShadow_213_706"/>
<feBlend mode="normal" in="SourceGraphic" in2="effect1_dropShadow_213_706" result="shape"/>
</filter>
<filter id="filter15_d_213_706" x="105.285" y="7.09229" width="44.3125" height="54.1934" filterUnits="userSpaceOnUse" color-interpolation-filters="sRGB">
<feFlood flood-opacity="0" result="BackgroundImageFix"/>
<feColorMatrix in="SourceAlpha" type="matrix" values="0 0 0 0 0 0 0 0 0 0 0 0 0 0 0 0 0 0 127 0" result="hardAlpha"/>
<feOffset dy="1"/>
<feComposite in2="hardAlpha" operator="out"/>
<feColorMatrix type="matrix" values="0 0 0 0 1 0 0 0 0 0.647059 0 0 0 0 0 0 0 0 0.45 0"/>
<feBlend mode="normal" in2="BackgroundImageFix" result="effect1_dropShadow_213_706"/>
<feBlend mode="normal" in="SourceGraphic" in2="effect1_dropShadow_213_706" result="shape"/>
</filter>
<filter id="filter16_d_213_706" x="55.9089" y="7.09229" width="41.7803" height="52.4204" filterUnits="userSpaceOnUse" color-interpolation-filters="sRGB">
<feFlood flood-opacity="0" result="BackgroundImageFix"/>
<feColorMatrix in="SourceAlpha" type="matrix" values="0 0 0 0 0 0 0 0 0 0 0 0 0 0 0 0 0 0 127 0" result="hardAlpha"/>
<feOffset dy="1"/>
<feComposite in2="hardAlpha" operator="out"/>
<feColorMatrix type="matrix" values="0 0 0 0 1 0 0 0 0 0.647059 0 0 0 0 0 0 0 0 0.45 0"/>
<feBlend mode="normal" in2="BackgroundImageFix" result="effect1_dropShadow_213_706"/>
<feBlend mode="normal" in="SourceGraphic" in2="effect1_dropShadow_213_706" result="shape"/>
</filter>
<filter id="filter17_d_213_706" x="4" y="7.09229" width="48.1106" height="52.4204" filterUnits="userSpaceOnUse" color-interpolation-filters="sRGB">
<feFlood flood-opacity="0" result="BackgroundImageFix"/>
<feColorMatrix in="SourceAlpha" type="matrix" values="0 0 0 0 0 0 0 0 0 0 0 0 0 0 0 0 0 0 127 0" result="hardAlpha"/>
<feOffset dy="1"/>
<feComposite in2="hardAlpha" operator="out"/>
<feColorMatrix type="matrix" values="0 0 0 0 1 0 0 0 0 0.647059 0 0 0 0 0 0 0 0 0.45 0"/>
<feBlend mode="normal" in2="BackgroundImageFix" result="effect1_dropShadow_213_706"/>
<feBlend mode="normal" in="SourceGraphic" in2="effect1_dropShadow_213_706" result="shape"/>
</filter>
</defs>
</svg>
