<svg width="961" height="262" viewBox="0 0 961 262" fill="none" xmlns="http://www.w3.org/2000/svg">
<g id="Heading 1 &#226;&#134;&#146; BHABIT" filter="url(#filter0_d_111_558)">
<g id="Vector" filter="url(#filter1_d_111_558)">
<path d="M825.276 69.9379H866.231V217.331H825.276V69.9379ZM776.41 47H915.097V94.0112H776.41V47Z" fill="#FFA500" shape-rendering="crispEdges"/>
<path d="M916.597 45.5V95.5117H867.731V218.831H823.775V95.5117H774.91V45.5H916.597Z" stroke="#971691" stroke-opacity="0.2" stroke-width="3" shape-rendering="crispEdges"/>
</g>
<g id="Vector_2" filter="url(#filter2_d_111_558)">
<path d="M716.973 47H757.928V217.331H716.973V47Z" fill="#FFA500" shape-rendering="crispEdges"/>
<path d="M759.429 45.5V218.831H715.473V45.5H759.429Z" stroke="#971691" stroke-opacity="0.2" stroke-width="3" shape-rendering="crispEdges"/>
</g>
<g id="Vector_3" filter="url(#filter3_d_111_558)">
<path d="M648.53 134.209L651.869 124.671C661.83 124.974 670.15 127.018 676.83 130.803C683.509 134.436 688.489 139.508 691.77 146.019C695.052 152.529 696.692 160.175 696.692 168.957C696.692 178.192 695.052 186.52 691.77 193.939C688.606 201.206 683.743 206.959 677.181 211.199C670.619 215.287 662.475 217.331 652.748 217.331H552.381L562.4 129.894L552.381 47H649.057C661.244 47 670.736 50.7094 677.533 58.1283C684.446 65.3957 687.903 75.5398 687.903 88.5607C687.903 95.8281 686.614 102.717 684.036 109.227C681.575 115.738 677.415 121.264 671.556 125.806C665.814 130.197 658.139 132.998 648.53 134.209ZM592.458 205.521L576.814 181.448H640.62C645.19 181.448 648.764 180.009 651.342 177.133C653.92 174.104 655.209 169.941 655.209 164.642C655.209 159.645 653.862 155.557 651.166 152.378C648.471 149.047 644.546 147.382 639.39 147.382H586.305V112.407H633.589C637.222 112.407 640.268 110.969 642.729 108.092C645.19 105.215 646.42 101.43 646.42 96.7365C646.42 92.8 645.307 89.5448 643.081 86.9709C640.971 84.2456 637.925 82.883 633.94 82.883H576.989L592.458 58.8096L601.422 129.894L592.458 205.521Z" fill="#FFA500" shape-rendering="crispEdges"/>
<path d="M649.057 45.5C661.568 45.5 671.499 49.3218 678.639 57.1152H678.638C685.876 64.7355 689.403 75.2853 689.403 88.5605C689.403 96.0015 688.083 103.071 685.438 109.757L685.439 109.758C682.874 116.544 678.539 122.292 672.476 126.992L672.468 126.998C672.451 127.011 672.434 127.022 672.417 127.035C674.223 127.755 675.941 128.575 677.569 129.498H677.568C684.492 133.27 689.689 138.556 693.11 145.344C696.516 152.102 698.192 159.989 698.192 168.957C698.192 178.373 696.519 186.91 693.143 194.545L693.142 194.544C689.861 202.075 684.807 208.058 677.995 212.459L677.984 212.466L677.975 212.472C671.12 216.742 662.683 218.831 652.748 218.831H550.699L550.891 217.16L560.89 129.899L550.892 47.1797L550.688 45.5H649.057ZM597 179.947H640.62C644.838 179.947 647.967 178.639 650.207 176.151C652.482 173.474 653.709 169.699 653.709 164.642C653.709 159.927 652.444 156.205 650.022 153.348L650.011 153.335L650 153.321C647.648 150.415 644.195 148.882 639.39 148.882H600.683L597 179.947ZM600.539 110.907H633.589C636.762 110.907 639.399 109.677 641.589 107.117C643.765 104.573 644.921 101.161 644.921 96.7363C644.921 93.1005 643.901 90.2113 641.946 87.9521L641.92 87.9209L641.895 87.8887C640.116 85.5908 637.542 84.3828 633.94 84.3828H597.194L600.539 110.907Z" stroke="#971691" stroke-opacity="0.2" stroke-width="3" shape-rendering="crispEdges"/>
</g>
<g id="Vector_4" filter="url(#filter4_d_111_558)">
<path d="M409.237 186.671V144.429H499.585V186.671H409.237ZM482.183 47L541.244 217.331H497.476L449.665 69.9379H460.739L412.752 217.331H369.16L428.045 47H482.183Z" fill="#FFA500" shape-rendering="crispEdges"/>
<path d="M483.251 45.5L483.601 46.5088L542.661 216.839L543.352 218.831H496.386L496.049 217.793L486.44 188.171H423.823L414.179 217.795L413.842 218.831H367.055L367.742 216.841L426.627 46.5098L426.977 45.5H483.251ZM438.553 142.929H471.765L455.188 91.8281L438.553 142.929Z" stroke="#971691" stroke-opacity="0.2" stroke-width="3" shape-rendering="crispEdges"/>
</g>
<g id="Vector_5" filter="url(#filter5_d_111_558)">
<path d="M210.59 47H251.545V217.331H210.59V47ZM313.242 47H354.198V217.331H313.242V47ZM233.616 107.183H329.765V153.968H233.616V107.183Z" fill="#FFA500" shape-rendering="crispEdges"/>
<path d="M253.046 45.5V105.684H311.742V45.5H355.698V218.831H311.742V155.468H253.046V218.831H209.09V45.5H253.046Z" stroke="#971691" stroke-opacity="0.2" stroke-width="3" shape-rendering="crispEdges"/>
</g>
<g id="Vector_6" filter="url(#filter6_d_111_558)">
<path d="M142.149 134.209L145.489 124.671C155.449 124.974 163.769 127.018 170.449 130.803C177.128 134.436 182.108 139.508 185.39 146.019C188.671 152.529 190.311 160.175 190.311 168.957C190.311 178.192 188.671 186.52 185.39 193.939C182.226 201.206 177.363 206.959 170.8 211.199C164.238 215.287 156.094 217.331 146.368 217.331H46L56.0192 129.894L46 47H142.676C154.863 47 164.355 50.7094 171.152 58.1283C178.066 65.3957 181.523 75.5398 181.523 88.5607C181.523 95.8281 180.234 102.717 177.655 109.227C175.195 115.738 171.035 121.264 165.175 125.806C159.433 130.197 151.758 132.998 142.149 134.209ZM86.0767 205.521L70.4327 181.448H134.239C138.809 181.448 142.383 180.009 144.961 177.133C147.539 174.104 148.828 169.941 148.828 164.642C148.828 159.645 147.481 155.557 144.786 152.378C142.09 149.047 138.165 147.382 133.009 147.382H79.9246V112.407H127.208C130.841 112.407 133.887 110.969 136.348 108.092C138.809 105.215 140.04 101.43 140.04 96.7365C140.04 92.8 138.926 89.5448 136.7 86.9709C134.591 84.2456 131.544 82.883 127.56 82.883H70.6085L86.0767 58.8096L95.0412 129.894L86.0767 205.521Z" fill="#FFA500" shape-rendering="crispEdges"/>
<path d="M142.676 45.5C155.187 45.5 165.118 49.3218 172.258 57.1152H172.257C179.495 64.7355 183.022 75.2853 183.022 88.5605C183.022 96.0015 181.702 103.071 179.058 109.757C176.492 116.543 172.158 122.292 166.095 126.992L166.087 126.998C166.07 127.011 166.053 127.022 166.036 127.035C167.842 127.755 169.56 128.575 171.188 129.498H171.188C178.112 133.27 183.309 138.556 186.729 145.344C190.136 152.102 191.812 159.989 191.812 168.957C191.811 178.373 190.138 186.91 186.762 194.545L186.761 194.544C183.481 202.075 178.426 208.058 171.614 212.459L171.604 212.466L171.594 212.472C164.739 216.742 156.302 218.831 146.367 218.831H44.3184L44.5098 217.16L54.5088 129.899L44.5107 47.1797L44.3076 45.5H142.676ZM90.6191 179.947H134.239C138.457 179.947 141.586 178.639 143.826 176.151C146.101 173.474 147.328 169.699 147.328 164.642C147.328 159.927 146.063 156.205 143.642 153.348L143.63 153.335L143.619 153.321C141.267 150.415 137.814 148.882 133.009 148.882H94.3018L90.6191 179.947ZM94.1582 110.907H127.208C130.381 110.907 133.018 109.677 135.208 107.117C137.385 104.573 138.54 101.161 138.54 96.7363C138.54 93.1005 137.52 90.2113 135.565 87.9521L135.539 87.9209L135.514 87.8887C133.735 85.5908 131.161 84.3828 127.56 84.3828H90.8135L94.1582 110.907Z" stroke="#971691" stroke-opacity="0.2" stroke-width="3" shape-rendering="crispEdges"/>
</g>
</g>
<defs>
<filter id="filter0_d_111_558" x="0.0152359" y="0.400002" width="960.68" height="261.531" filterUnits="userSpaceOnUse" color-interpolation-filters="sRGB">
<feFlood flood-opacity="0" result="BackgroundImageFix"/>
<feColorMatrix in="SourceAlpha" type="matrix" values="0 0 0 0 0 0 0 0 0 0 0 0 0 0 0 0 0 0 127 0" result="hardAlpha"/>
<feOffset dy="-1"/>
<feGaussianBlur stdDeviation="21.3"/>
<feColorMatrix type="matrix" values="0 0 0 0 1 0 0 0 0 0.0784314 0 0 0 0 0.576471 0 0 0 1 0"/>
<feBlend mode="plus-lighter" in2="BackgroundImageFix" result="effect1_dropShadow_111_558"/>
<feBlend mode="normal" in="SourceGraphic" in2="effect1_dropShadow_111_558" result="shape"/>
</filter>
<filter id="filter1_d_111_558" x="763.41" y="34" width="164.686" height="196.331" filterUnits="userSpaceOnUse" color-interpolation-filters="sRGB">
<feFlood flood-opacity="0" result="BackgroundImageFix"/>
<feColorMatrix in="SourceAlpha" type="matrix" values="0 0 0 0 0 0 0 0 0 0 0 0 0 0 0 0 0 0 127 0" result="hardAlpha"/>
<feOffset/>
<feGaussianBlur stdDeviation="5"/>
<feComposite in2="hardAlpha" operator="out"/>
<feColorMatrix type="matrix" values="0 0 0 0 0.780392 0 0 0 0 0.0823529 0 0 0 0 0.521569 0 0 0 1 0"/>
<feBlend mode="normal" in2="BackgroundImageFix" result="effect1_dropShadow_111_558"/>
<feBlend mode="normal" in="SourceGraphic" in2="effect1_dropShadow_111_558" result="shape"/>
</filter>
<filter id="filter2_d_111_558" x="703.973" y="34" width="66.9551" height="196.331" filterUnits="userSpaceOnUse" color-interpolation-filters="sRGB">
<feFlood flood-opacity="0" result="BackgroundImageFix"/>
<feColorMatrix in="SourceAlpha" type="matrix" values="0 0 0 0 0 0 0 0 0 0 0 0 0 0 0 0 0 0 127 0" result="hardAlpha"/>
<feOffset/>
<feGaussianBlur stdDeviation="5"/>
<feComposite in2="hardAlpha" operator="out"/>
<feColorMatrix type="matrix" values="0 0 0 0 0.780392 0 0 0 0 0.0823529 0 0 0 0 0.521569 0 0 0 1 0"/>
<feBlend mode="normal" in2="BackgroundImageFix" result="effect1_dropShadow_111_558"/>
<feBlend mode="normal" in="SourceGraphic" in2="effect1_dropShadow_111_558" result="shape"/>
</filter>
<filter id="filter3_d_111_558" x="538.996" y="34" width="170.695" height="196.331" filterUnits="userSpaceOnUse" color-interpolation-filters="sRGB">
<feFlood flood-opacity="0" result="BackgroundImageFix"/>
<feColorMatrix in="SourceAlpha" type="matrix" values="0 0 0 0 0 0 0 0 0 0 0 0 0 0 0 0 0 0 127 0" result="hardAlpha"/>
<feOffset/>
<feGaussianBlur stdDeviation="5"/>
<feComposite in2="hardAlpha" operator="out"/>
<feColorMatrix type="matrix" values="0 0 0 0 0.780392 0 0 0 0 0.0823529 0 0 0 0 0.521569 0 0 0 1 0"/>
<feBlend mode="normal" in2="BackgroundImageFix" result="effect1_dropShadow_111_558"/>
<feBlend mode="normal" in="SourceGraphic" in2="effect1_dropShadow_111_558" result="shape"/>
</filter>
<filter id="filter4_d_111_558" x="354.949" y="34" width="200.51" height="196.331" filterUnits="userSpaceOnUse" color-interpolation-filters="sRGB">
<feFlood flood-opacity="0" result="BackgroundImageFix"/>
<feColorMatrix in="SourceAlpha" type="matrix" values="0 0 0 0 0 0 0 0 0 0 0 0 0 0 0 0 0 0 127 0" result="hardAlpha"/>
<feOffset/>
<feGaussianBlur stdDeviation="5"/>
<feComposite in2="hardAlpha" operator="out"/>
<feColorMatrix type="matrix" values="0 0 0 0 0.780392 0 0 0 0 0.0823529 0 0 0 0 0.521569 0 0 0 1 0"/>
<feBlend mode="normal" in2="BackgroundImageFix" result="effect1_dropShadow_111_558"/>
<feBlend mode="normal" in="SourceGraphic" in2="effect1_dropShadow_111_558" result="shape"/>
</filter>
<filter id="filter5_d_111_558" x="197.59" y="34" width="169.607" height="196.331" filterUnits="userSpaceOnUse" color-interpolation-filters="sRGB">
<feFlood flood-opacity="0" result="BackgroundImageFix"/>
<feColorMatrix in="SourceAlpha" type="matrix" values="0 0 0 0 0 0 0 0 0 0 0 0 0 0 0 0 0 0 127 0" result="hardAlpha"/>
<feOffset/>
<feGaussianBlur stdDeviation="5"/>
<feComposite in2="hardAlpha" operator="out"/>
<feColorMatrix type="matrix" values="0 0 0 0 0.780392 0 0 0 0 0.0823529 0 0 0 0 0.521569 0 0 0 1 0"/>
<feBlend mode="normal" in2="BackgroundImageFix" result="effect1_dropShadow_111_558"/>
<feBlend mode="normal" in="SourceGraphic" in2="effect1_dropShadow_111_558" result="shape"/>
</filter>
<filter id="filter6_d_111_558" x="32.6152" y="34" width="170.695" height="196.331" filterUnits="userSpaceOnUse" color-interpolation-filters="sRGB">
<feFlood flood-opacity="0" result="BackgroundImageFix"/>
<feColorMatrix in="SourceAlpha" type="matrix" values="0 0 0 0 0 0 0 0 0 0 0 0 0 0 0 0 0 0 127 0" result="hardAlpha"/>
<feOffset/>
<feGaussianBlur stdDeviation="5"/>
<feComposite in2="hardAlpha" operator="out"/>
<feColorMatrix type="matrix" values="0 0 0 0 0.780392 0 0 0 0 0.0823529 0 0 0 0 0.521569 0 0 0 1 0"/>
<feBlend mode="normal" in2="BackgroundImageFix" result="effect1_dropShadow_111_558"/>
<feBlend mode="normal" in="SourceGraphic" in2="effect1_dropShadow_111_558" result="shape"/>
</filter>
</defs>
</svg>
